<svg width="23" height="22" viewBox="0 0 23 22" fill="none" xmlns="http://www.w3.org/2000/svg">
<path id="Vector" d="M21.1632 0.144531H1.1897C0.709361 0.144531 0.321289 0.532603 0.321289 1.01294V20.9864C0.321289 21.4668 0.709361 21.8548 1.1897 21.8548H21.1632C21.6435 21.8548 22.0316 21.4668 22.0316 20.9864V1.01294C22.0316 0.532603 21.6435 0.144531 21.1632 0.144531ZM20.2948 20.118H15.2987V13.4475H18.121L18.5444 10.172H15.2987V8.07965C15.2987 7.12982 15.5619 6.48394 16.9215 6.48394H18.6556V3.55305C18.3544 3.51234 17.3259 3.42279 16.1264 3.42279C13.6243 3.42279 11.9119 4.95065 11.9119 7.754V10.1693H9.08411V13.4448H11.9146V20.118H2.05811V1.88136H20.2948V20.118Z" fill="white"/>
</svg>
