<svg width="22" height="22" viewBox="0 0 22 22" fill="none" xmlns="http://www.w3.org/2000/svg">
<path id="Vector" d="M6.29599 0.144531H15.4143C18.888 0.144531 21.7103 2.96687 21.7103 6.44052V15.5589C21.7103 17.2287 21.047 18.8301 19.8663 20.0108C18.6855 21.1915 17.0841 21.8548 15.4143 21.8548H6.29599C2.82234 21.8548 0 19.0325 0 15.5589V6.44052C0 4.77072 0.663326 3.16931 1.84405 1.98858C3.02478 0.807857 4.62619 0.144531 6.29599 0.144531ZM6.07889 2.31556C5.04246 2.31556 4.04848 2.72728 3.31562 3.46015C2.58275 4.19301 2.17103 5.18699 2.17103 6.22342V15.776C2.17103 17.9361 3.91871 19.6838 6.07889 19.6838H15.6314C16.6679 19.6838 17.6618 19.2721 18.3947 18.5392C19.1276 17.8064 19.5393 16.8124 19.5393 15.776V6.22342C19.5393 4.06324 17.7916 2.31556 15.6314 2.31556H6.07889ZM16.5541 3.94384C16.914 3.94384 17.2591 4.08679 17.5136 4.34126C17.7681 4.59573 17.911 4.94086 17.911 5.30073C17.911 5.6606 17.7681 6.00573 17.5136 6.2602C17.2591 6.51467 16.914 6.65763 16.5541 6.65763C16.1942 6.65763 15.8491 6.51467 15.5946 6.2602C15.3402 6.00573 15.1972 5.6606 15.1972 5.30073C15.1972 4.94086 15.3402 4.59573 15.5946 4.34126C15.8491 4.08679 16.1942 3.94384 16.5541 3.94384ZM10.8552 5.57211C12.2946 5.57211 13.6752 6.14394 14.693 7.16181C15.7109 8.17968 16.2827 9.56021 16.2827 10.9997C16.2827 12.4392 15.7109 13.8197 14.693 14.8376C13.6752 15.8554 12.2946 16.4273 10.8552 16.4273C9.41567 16.4273 8.03515 15.8554 7.01728 14.8376C5.99941 13.8197 5.42758 12.4392 5.42758 10.9997C5.42758 9.56021 5.99941 8.17968 7.01728 7.16181C8.03515 6.14394 9.41567 5.57211 10.8552 5.57211ZM10.8552 7.74314C9.99147 7.74314 9.16315 8.08624 8.55243 8.69696C7.94171 9.30768 7.59861 10.136 7.59861 10.9997C7.59861 11.8634 7.94171 12.6917 8.55243 13.3024C9.16315 13.9131 9.99147 14.2562 10.8552 14.2562C11.7188 14.2562 12.5472 13.9131 13.1579 13.3024C13.7686 12.6917 14.1117 11.8634 14.1117 10.9997C14.1117 10.136 13.7686 9.30768 13.1579 8.69696C12.5472 8.08624 11.7188 7.74314 10.8552 7.74314Z" fill="white"/>
</svg>
